<?xml version="1.0" encoding="UTF-8"?>
<!DOCTYPE svg PUBLIC "-//W3C//DTD SVG 1.1//EN" "http://www.w3.org/Graphics/SVG/1.1/DTD/svg11.dtd">
<!-- Creator: CorelDRAW X8 -->
<svg xmlns="http://www.w3.org/2000/svg" xml:space="preserve" width="210mm" height="297mm" version="1.1" style="shape-rendering:geometricPrecision; text-rendering:geometricPrecision; image-rendering:optimizeQuality; fill-rule:evenodd; clip-rule:evenodd"
viewBox="0 0 21000 29700"
 xmlns:xlink="http://www.w3.org/1999/xlink"
 xmlns:dc="http://purl.org/dc/elements/1.1/"
 xmlns:cc="http://creativecommons.org/ns#"
 xmlns:rdf="http://www.w3.org/1999/02/22-rdf-syntax-ns#"
 xmlns:svg="http://www.w3.org/2000/svg"
 xmlns:sodipodi="http://sodipodi.sourceforge.net/DTD/sodipodi-0.dtd"
 xmlns:inkscape="http://www.inkscape.org/namespaces/inkscape"
 inkscape:output_extension="org.inkscape.output.svg.inkscape"
 sodipodi:docbase="s:\Data\FacilityIcons"
 sodipodi:docname="port.svg"
 inkscape:version="0.46"
 sodipodi:version="0.32"
 enable-background="new 0 0 580 580">
 <defs>
  <style type="text/css">
   <![CDATA[
    .fil0 {fill:black}
   ]]>
  </style>
 </defs>
 <g id="Capa_x0020_1">
  <metadata id="CorelCorpID_0Corel-Layer"/>
  <sodipodi:namedview showgrid="false" inkscape:cy="281.19503" inkscape:cx="301.5186" inkscape:zoom="0.92167712" pagecolor="#ffffff" bordercolor="#666666" guidetolerance="10.0" objecttolerance="10.0" gridtolerance="10.0" borderopacity="1.0" id="base" inkscape:current-layer="svg2" inkscape:window-y="25" inkscape:window-x="91" inkscape:pageopacity="0.0" inkscape:pageshadow="2" inkscape:window-width="1048" inkscape:window-height="947"/>
  <path class="fil0" d="M11057 12624c-398,206 -1028,152 -1475,-81 -615,-320 -963,-242 -1608,45 -499,222 -950,222 -1448,0 -644,-288 -976,-365 -1591,-45 -447,233 -1086,287 -1484,81 -697,-363 -1195,-431 -1749,-89 0,0 -239,181 -766,181l0 1283c332,0 592,-65 815,-201 283,-174 812,-355 1441,-35 629,321 1162,321 1695,42 533,-279 828,-329 1476,-49 629,321 1251,292 1784,13 648,-281 950,-243 1483,36 533,279 1066,279 1695,-42 629,-320 1141,-137 1424,35 238,144 476,201 831,201l0 -1283c-535,1 -765,-181 -765,-181 -554,-342 -1061,-274 -1758,89z"/>
  <path class="fil0" d="M12822 10663c-1088,-593 -1562,129 -2147,129l0 -2893 903 -2078c137,-320 0,-613 -328,-753l-546 -222 0 -1799 -1054 0 0 -948 -1476 0 0 -1270 -916 0 -915 0 0 1270 -1476 0 0 948 -1053 0 0 1799 -547 222c-328,140 -465,433 -328,753l902 2078 0 2893c-584,0 -1082,-710 -2146,-117 0,0 -304,170 -765,181l0 1240c360,-27 533,-84 806,-237 290,-162 820,-320 1449,1 629,320 1162,321 1695,42 533,-279 998,-293 1497,-42 629,320 1122,324 1756,7 511,-259 971,-244 1504,35 533,279 1066,278 1695,-42 629,-321 1156,-159 1449,-1 256,138 437,210 807,237l0 -1252c-471,-11 -766,-181 -766,-181zm-2898 -6152l-2666 -1100 -2665 1100 0 -726 1053 0 0 -934 1612 0 1613 0 0 934 1053 0 0 726z"/>
 </g>
</svg>
