<?xml version="1.0" encoding="UTF-8"?>
<!DOCTYPE svg PUBLIC "-//W3C//DTD SVG 1.1//EN" "http://www.w3.org/Graphics/SVG/1.1/DTD/svg11.dtd">
<!-- Creator: CorelDRAW X8 -->
<svg xmlns="http://www.w3.org/2000/svg" xml:space="preserve" width="210mm" height="297mm" version="1.1" style="shape-rendering:geometricPrecision; text-rendering:geometricPrecision; image-rendering:optimizeQuality; fill-rule:evenodd; clip-rule:evenodd"
viewBox="0 0 21000 29700"
 xmlns:xlink="http://www.w3.org/1999/xlink"
 xmlns:dc="http://purl.org/dc/elements/1.1/"
 xmlns:cc="http://creativecommons.org/ns#"
 xmlns:rdf="http://www.w3.org/1999/02/22-rdf-syntax-ns#"
 xmlns:svg="http://www.w3.org/2000/svg"
 xmlns:sodipodi="http://sodipodi.sourceforge.net/DTD/sodipodi-0.dtd"
 xmlns:inkscape="http://www.inkscape.org/namespaces/inkscape"
 inkscape:output_extension="org.inkscape.output.svg.inkscape"
 sodipodi:docbase="s:\Data\FacilityIcons"
 sodipodi:docname="port.svg"
 inkscape:version="0.46"
 sodipodi:version="0.32"
 enable-background="new 0 0 580 580">
 <defs>
  <style type="text/css">
   <![CDATA[
    .str0 {stroke:#2B2926;stroke-width:75}
    .fil0 {fill:#00AFEF}
   ]]>
  </style>
 </defs>
 <g id="Capa_x0020_1">
  <metadata id="CorelCorpID_0Corel-Layer"/>
  <sodipodi:namedview showgrid="false" inkscape:cy="281.19503" inkscape:cx="301.5186" inkscape:zoom="0.92167712" pagecolor="#ffffff" bordercolor="#666666" guidetolerance="10.0" objecttolerance="10.0" gridtolerance="10.0" borderopacity="1.0" id="base" inkscape:current-layer="svg2" inkscape:window-y="25" inkscape:window-x="91" inkscape:pageopacity="0.0" inkscape:pageshadow="2" inkscape:window-width="1048" inkscape:window-height="947"/>
  <path class="fil0 str0" d="M11650 13781c-437,227 -1130,168 -1620,-88 -676,-352 -1058,-266 -1767,49 -548,244 -1044,244 -1590,0 -708,-316 -1073,-401 -1748,-49 -491,256 -1194,315 -1630,88 -766,-398 -1313,-472 -1922,-97 0,0 -262,199 -840,199l0 1409c364,0 649,-71 894,-221 312,-191 892,-390 1583,-38 691,353 1276,353 1862,46 586,-306 910,-361 1622,-53 690,352 1374,320 1959,13 712,-308 1044,-266 1629,40 586,307 1172,307 1862,-46 691,-352 1253,-151 1565,38 261,158 522,221 913,221l0 -1409c-589,1 -841,-199 -841,-199 -608,-375 -1166,-301 -1931,97z"/>
  <path class="fil0 str0" d="M13588 11628c-1195,-652 -1715,142 -2357,142l0 -3178 991 -2283c151,-352 0,-674 -360,-827l-600 -245 0 -1976 -1158 0 0 -1041 -1621 0 0 -1395 -1006 0 -1006 0 0 1395 -1621 0 0 1041 -1157 0 0 1976 -600 245c-361,153 -511,475 -361,827l991 2283 0 3178c-642,-1 -1189,-781 -2357,-129 0,0 -334,186 -841,198l0 1363c396,-30 586,-93 886,-261 318,-178 901,-351 1592,1 691,352 1276,353 1862,46 585,-306 1096,-322 1644,-46 690,352 1233,356 1929,8 562,-285 1066,-268 1652,38 586,307 1171,306 1862,-46 691,-352 1270,-174 1591,-1 282,152 480,231 887,261l0 -1375c-517,-13 -842,-199 -842,-199zm-3183 -6758l-2928 -1208 -2927 1208 0 -798 1156 0 0 -1025 1771 0 1772 0 0 1025 1156 0 0 798z"/>
  <path class="fil0 str0" d="M11643 11701c-437,227 -1130,168 -1620,-88 -676,-352 -1058,-266 -1766,49 -549,244 -1044,244 -1591,0 -707,-316 -1072,-401 -1748,-49 -491,256 -1193,315 -1630,88 -766,-398 -1313,-472 -1921,-97 0,0 -263,199 -841,199l0 1410c364,0 649,-72 895,-222 311,-191 892,-390 1582,-38 691,353 1277,353 1862,46 586,-306 910,-361 1622,-53 691,352 1374,320 1959,13 712,-308 1044,-266 1630,40 585,307 1171,307 1862,-46 690,-352 1252,-151 1564,38 261,158 522,222 913,222l0 -1410c-588,1 -841,-199 -841,-199 -608,-375 -1165,-301 -1931,97z"/>
 </g>
</svg>
