<?xml version="1.0" encoding="UTF-8"?>
<!DOCTYPE svg PUBLIC "-//W3C//DTD SVG 1.1//EN" "http://www.w3.org/Graphics/SVG/1.1/DTD/svg11.dtd">
<!-- Creator: CorelDRAW X8 -->
<svg xmlns="http://www.w3.org/2000/svg" xml:space="preserve" width="210mm" height="297mm" version="1.1" style="shape-rendering:geometricPrecision; text-rendering:geometricPrecision; image-rendering:optimizeQuality; fill-rule:evenodd; clip-rule:evenodd"
viewBox="0 0 210 297"
 xmlns:xlink="http://www.w3.org/1999/xlink">
 <defs>
  <style type="text/css">
   <![CDATA[
    .fil1 {fill:#3E4095}
    .fil0 {fill:white}
   ]]>
  </style>
 </defs>
 <g id="Capa_x0020_1">
  <metadata id="CorelCorpID_0Corel-Layer"/>
  <polygon class="fil0" points="77,35 61,35 61,50 120,50 120,35 104,35 "/>
  <polygon class="fil0" points="91,59 129,77 129,52 52,52 52,77 "/>
  <path class="fil0" d="M91 61l-48 22c2,6 5,12 7,17l41 -15 41 15c2,-5 4,-11 7,-17l-48 -22z"/>
  <polygon class="fil0" points="79,33 102,33 99,11 82,11 "/>
  <path class="fil0" d="M160 134c-3,0 -4,-1 -6,-3 -2,-1 -4,-3 -8,-3 -3,0 -5,2 -7,3 -2,2 -3,3 -6,3 -4,0 -5,-1 -7,-3 -1,-1 -2,-1 -4,-2 2,-6 4,-15 9,-28l-40 -14 -41 14c5,13 8,22 9,28 -2,1 -3,1 -4,2 -2,2 -3,3 -6,3 -3,0 -5,-1 -7,-3 -1,-1 -3,-3 -7,-3 -4,0 -6,2 -8,3 -1,2 -3,3 -6,3 -3,0 -5,-1 -6,-3 -1,0 -1,0 -1,0 0,1 1,2 1,3 1,1 3,2 6,2 4,0 6,-2 7,-3 2,-2 4,-3 7,-3 3,0 5,1 6,3 2,1 4,3 8,3 4,0 6,-2 7,-3 2,-2 4,-3 7,-3 3,0 4,1 6,3 2,1 4,3 8,3 4,0 6,-2 7,-3 2,-2 4,-3 7,-3 3,0 4,1 6,3 2,1 4,3 8,3 3,0 5,-2 7,-3 2,-2 3,-3 7,-3 3,0 4,1 6,3 2,1 4,3 8,3 3,0 5,-2 7,-3 2,-2 3,-3 6,-3 4,0 5,1 7,3 2,1 4,3 7,3 3,0 5,-1 6,-2 1,-1 1,-2 2,-3 -1,0 -1,0 -1,0 -2,2 -3,3 -7,3z"/>
  <path class="fil0" d="M146 145c-3,0 -5,2 -7,3 -2,2 -3,3 -6,3 -4,0 -5,-1 -7,-3 -2,-1 -4,-3 -7,-3 -4,0 -6,2 -8,3 -2,2 -3,3 -6,3 -4,0 -5,-1 -7,-3 -1,-1 -4,-3 -7,-3 -4,0 -6,2 -8,3 -2,2 -3,3 -6,3 -3,0 -5,-1 -7,-3 -1,-1 -3,-3 -7,-3 -4,0 -6,2 -8,3 -2,2 -3,3 -6,3 -3,0 -5,-1 -7,-3 -1,-1 -3,-3 -7,-3 -4,0 -6,2 -8,3 -1,1 -2,2 -3,2 1,1 1,1 1,2 2,-1 3,-2 3,-2 2,-2 4,-3 7,-3 3,0 5,1 6,3 2,1 4,3 8,3 4,0 6,-2 7,-3 2,-2 4,-3 7,-3 3,0 4,1 6,3 2,1 4,3 8,3 3,0 6,-2 7,-3 2,-2 3,-3 7,-3 3,0 4,1 6,3 2,1 4,3 8,3 3,0 5,-2 7,-3 2,-2 3,-3 7,-3 3,0 4,1 6,3 2,1 4,3 8,3 3,0 5,-2 7,-3 2,-2 3,-3 6,-3 4,0 5,1 7,3 1,0 2,1 3,2 0,-1 1,-1 1,-2 -1,0 -2,-1 -3,-2 -2,-1 -4,-3 -8,-3z"/>
  <path class="fil0" d="M139 158c-2,1 -3,2 -6,2 -4,0 -5,-1 -7,-2 -2,-1 -4,-3 -7,-3 -4,0 -6,2 -8,3 -2,1 -3,2 -6,2 -4,0 -5,-1 -7,-2 -1,-1 -4,-3 -7,-3 -4,0 -6,2 -8,3 -2,1 -3,2 -6,2 -3,0 -5,-1 -7,-2 -1,-1 -3,-3 -7,-3 -4,0 -6,2 -8,3 -2,1 -3,2 -6,2 -3,0 -5,-1 -7,-2 -1,-1 -3,-3 -7,-3 -3,0 -4,1 -6,2 1,0 1,1 1,1 2,-1 3,-1 5,-1 3,0 5,1 6,2 2,2 4,3 8,3 4,0 6,-1 7,-3 2,-1 4,-2 7,-2 3,0 4,1 6,2 2,2 4,3 8,3 4,0 6,-1 7,-3 2,-1 4,-2 7,-2 3,0 4,1 6,2 2,2 4,3 8,3 3,0 5,-1 7,-3 2,-1 3,-2 7,-2 3,0 4,1 6,2 2,2 4,3 8,3 3,0 5,-1 7,-3 2,-1 3,-2 6,-2 2,0 4,0 5,1 0,-1 1,-1 1,-1 -1,-1 -3,-2 -6,-2 -3,0 -5,2 -7,3z"/>
  <path class="fil0" d="M126 169c-2,-1 -4,-3 -7,-3 -4,0 -6,2 -8,3 -2,2 -3,3 -6,3 -4,0 -5,-1 -7,-3 -2,-1 -4,-3 -7,-3 -4,0 -6,2 -8,3 -2,2 -3,3 -6,3 -3,0 -5,-1 -7,-3 -1,-1 -3,-3 -7,-3 -4,0 -6,2 -8,3 -2,2 -3,3 -6,3 -1,0 -2,0 -2,0 1,0 2,1 3,2 3,-1 5,-2 6,-3 2,-2 4,-3 7,-3 3,0 4,1 6,3 2,1 4,3 8,3 3,0 6,-2 7,-3 2,-2 3,-3 7,-3 3,0 4,1 6,3 2,1 4,3 8,3 3,0 5,-2 7,-3 2,-2 3,-3 7,-3 3,0 4,1 6,3 1,1 3,2 6,3 1,-1 2,-2 3,-2 0,0 -1,0 -1,0 -4,0 -5,-1 -7,-3z"/>
  <g id="_2334230641744">
   <path class="fil1" d="M14 131c2,2 4,3 7,3 3,0 5,-1 6,-3 2,-1 4,-3 8,-3 4,0 6,2 7,3 2,2 4,3 7,3 3,0 4,-1 6,-3 1,-1 2,-1 4,-2 -1,-6 -4,-15 -9,-28l41 -14 40 14c-5,13 -7,22 -9,28 2,1 3,1 4,2 2,2 3,3 6,3 4,0 5,-1 7,-3 2,-1 4,-3 7,-3 4,0 6,2 8,3 2,2 3,3 6,3 4,0 5,-1 7,-3 0,0 0,0 1,0 3,-9 5,-19 5,-29 0,-41 -31,-76 -71,-81l-2 -12 -19 0 -2 12c-40,5 -71,40 -71,81 0,10 2,20 6,29 0,0 0,0 0,0zm85 -120l3 22 -23 0 3 -22 17 0zm21 39l-59 0 0 -15 16 0 27 0 16 0 0 15zm9 2l0 25 -38 -18 -39 18 0 -25 77 0zm-38 33l-42 15c-1,-5 -4,-11 -6,-17l48 -22 47 22c-2,6 -4,12 -6,17l-41 -15z"/>
   <path class="fil1" d="M153 140c-2,-1 -3,-2 -6,-2 -4,0 -5,1 -7,2 -2,2 -4,3 -7,3 -4,0 -6,-1 -8,-3 -2,-1 -3,-2 -6,-2 -4,0 -5,1 -7,2 -1,2 -4,3 -7,3 -4,0 -6,-1 -8,-3 -2,-1 -3,-2 -6,-2 -3,0 -5,1 -7,2 -1,2 -3,3 -7,3 -4,0 -6,-1 -8,-3 -2,-1 -3,-2 -6,-2 -3,0 -5,1 -7,2 -1,2 -3,3 -7,3 -4,0 -6,-1 -8,-3 -1,-1 -3,-2 -6,-2 -3,0 -5,1 -6,2 -2,2 -4,3 -8,3 -1,0 -1,0 -1,0 1,3 3,5 4,7 1,0 2,-1 3,-2 2,-1 4,-3 8,-3 4,0 6,2 8,3 1,2 3,3 6,3 3,0 5,-1 6,-3 2,-1 4,-3 8,-3 4,0 6,2 7,3 2,2 4,3 7,3 3,0 5,-1 6,-3 2,-1 4,-3 8,-3 4,0 6,2 7,3 2,2 4,3 7,3 3,0 4,-1 6,-3 2,-1 4,-3 8,-3 3,0 5,2 7,3 2,2 3,3 7,3 3,0 4,-1 6,-3 2,-1 4,-3 8,-3 3,0 5,2 7,3 1,1 2,2 3,2 2,-2 4,-4 5,-7 0,0 -1,0 -1,0 -4,0 -6,-1 -8,-3z"/>
   <path class="fil1" d="M153 133c-2,-2 -3,-3 -6,-3 -4,0 -5,1 -7,3 -2,1 -4,3 -7,3 -4,0 -6,-2 -8,-3 -2,-2 -3,-3 -6,-3 -4,0 -5,1 -7,3 -1,1 -4,3 -7,3 -4,0 -6,-2 -8,-3 -2,-2 -3,-3 -6,-3 -3,0 -5,1 -7,3 -1,1 -3,3 -7,3 -4,0 -6,-2 -8,-3 -2,-2 -3,-3 -6,-3 -3,0 -5,1 -7,3 -1,1 -3,3 -7,3 -4,0 -6,-2 -8,-3 -1,-2 -3,-3 -6,-3 -3,0 -5,1 -6,3 -2,1 -4,3 -8,3 -3,0 -5,-1 -6,-2 1,2 2,5 3,7 1,0 2,0 3,0 3,0 5,-1 6,-2 2,-2 4,-3 8,-3 4,0 6,1 7,3 2,1 4,2 7,2 3,0 5,-1 6,-2 2,-2 4,-3 8,-3 4,0 6,1 7,3 2,1 4,2 7,2 3,0 4,-1 6,-2 2,-2 4,-3 8,-3 4,0 6,1 7,3 2,1 4,2 7,2 3,0 4,-1 6,-2 2,-2 4,-3 8,-3 3,0 5,1 7,3 2,1 3,2 7,2 3,0 4,-1 6,-2 2,-2 4,-3 8,-3 3,0 5,1 7,3 2,1 3,2 6,2 2,0 2,0 3,0 1,-2 2,-5 3,-7 -1,1 -3,2 -6,2 -3,0 -5,-2 -7,-3z"/>
   <path class="fil1" d="M146 147c-3,0 -4,1 -6,3 -2,1 -4,3 -7,3 -4,0 -6,-2 -8,-3 -2,-2 -3,-3 -6,-3 -4,0 -5,1 -7,3 -2,1 -4,3 -7,3 -4,0 -6,-2 -8,-3 -2,-2 -3,-3 -6,-3 -3,0 -5,1 -7,3 -1,1 -3,3 -7,3 -4,0 -6,-2 -8,-3 -2,-2 -3,-3 -6,-3 -3,0 -5,1 -7,3 -1,1 -3,3 -7,3 -4,0 -6,-2 -8,-3 -1,-2 -3,-3 -6,-3 -3,0 -5,1 -7,3 0,0 -1,1 -3,2 2,1 3,3 4,5 2,-1 3,-2 6,-2 4,0 6,2 7,3 2,1 4,2 7,2 3,0 5,-1 6,-2 2,-1 4,-3 8,-3 4,0 6,2 7,3 2,1 4,2 7,2 3,0 4,-1 6,-2 2,-1 4,-3 8,-3 4,0 6,2 7,3 2,1 4,2 7,2 3,0 4,-1 6,-2 2,-1 4,-3 8,-3 3,0 5,2 7,3 2,1 3,2 7,2 3,0 4,-1 6,-2 2,-1 4,-3 8,-3 2,0 4,1 5,2 2,-2 3,-4 4,-5 -1,-1 -2,-1 -3,-2 -2,-2 -3,-3 -7,-3z"/>
   <path class="fil1" d="M140 159c-2,2 -4,3 -7,3 -4,0 -6,-1 -8,-3 -2,-1 -3,-2 -6,-2 -4,0 -5,1 -7,2 -2,2 -4,3 -7,3 -4,0 -6,-1 -8,-3 -2,-1 -3,-2 -6,-2 -3,0 -5,1 -7,2 -1,2 -3,3 -7,3 -4,0 -6,-1 -8,-3 -2,-1 -3,-2 -6,-2 -3,0 -5,1 -7,2 -1,2 -3,3 -7,3 -4,0 -6,-1 -8,-3 -1,-1 -3,-2 -6,-2 -2,0 -3,0 -5,1 5,5 11,10 17,14 0,0 1,0 2,0 3,0 5,-1 6,-3 2,-1 4,-3 8,-3 4,0 6,2 7,3 2,2 4,3 7,3 3,0 4,-1 6,-3 2,-1 4,-3 8,-3 3,0 6,2 7,3 2,2 3,3 7,3 3,0 4,-1 6,-3 2,-1 4,-3 8,-3 3,0 5,2 7,3 2,2 3,3 7,3 0,0 1,0 2,0 6,-4 11,-9 16,-14 -1,-1 -3,-1 -5,-1 -3,0 -4,1 -6,2z"/>
   <path class="fil1" d="M119 168c-4,0 -5,1 -7,3 -2,1 -4,3 -7,3 -4,0 -6,-2 -8,-3 -2,-2 -3,-3 -6,-3 -3,0 -5,1 -7,3 -1,1 -3,3 -7,3 -4,0 -6,-2 -8,-3 -2,-2 -3,-3 -6,-3 -3,0 -5,1 -7,3 -1,1 -3,2 -6,3 3,1 5,2 8,3 1,0 3,-1 5,-1 4,0 6,2 7,3 2,2 4,3 7,3 3,0 4,-1 6,-3 2,-1 4,-3 8,-3 3,0 6,2 7,3 2,2 3,3 7,3 3,0 4,-1 6,-3 2,-1 4,-3 8,-3 2,0 3,1 4,1 3,-1 6,-2 8,-3 -3,-1 -4,-2 -6,-3 -2,-2 -3,-3 -6,-3z"/>
   <path class="fil1" d="M91 178c-4,0 -5,1 -7,3 -1,1 -3,2 -5,2 4,1 8,1 12,1 4,0 8,0 11,-1 -2,0 -4,-1 -5,-2 -2,-2 -3,-3 -6,-3z"/>
   <path class="fil1" d="M63 178c-1,0 -2,0 -3,0 4,2 7,3 11,4 -1,-1 -1,-1 -2,-1 -2,-2 -3,-3 -6,-3z"/>
   <path class="fil1" d="M112 181c0,0 -1,0 -1,1 3,-1 7,-2 10,-4 -1,0 -1,0 -2,0 -4,0 -5,1 -7,3z"/>
  </g>
  <path class="fil0" d="M111 179c-2,2 -3,3 -6,3 -4,0 -5,-1 -7,-3 -1,-1 -4,-3 -7,-3 -4,0 -6,2 -8,3 -2,2 -3,3 -6,3 -3,0 -5,-1 -7,-3 -1,-1 -3,-3 -7,-3 -2,0 -4,1 -5,1 1,1 2,1 2,1 1,0 2,0 3,0 3,0 5,1 6,3 1,0 1,0 2,1 2,1 5,1 8,1 2,0 4,-1 5,-2 2,-2 4,-3 7,-3 3,0 4,1 6,3 1,1 3,2 5,2 3,0 6,0 9,-1 0,-1 1,-1 1,-1 2,-2 3,-3 7,-3 1,0 1,0 2,0 1,0 2,0 2,-1 -1,0 -2,-1 -4,-1 -4,0 -6,2 -8,3z"/>
  <path class="fil0" d="M154 139c-2,-2 -4,-3 -8,-3 -3,0 -5,1 -7,3 -2,1 -3,2 -6,2 -4,0 -5,-1 -7,-2 -2,-2 -4,-3 -7,-3 -4,0 -6,1 -8,3 -2,1 -3,2 -6,2 -4,0 -5,-1 -7,-2 -1,-2 -4,-3 -7,-3 -4,0 -6,1 -8,3 -2,1 -3,2 -6,2 -3,0 -5,-1 -7,-2 -1,-2 -3,-3 -7,-3 -4,0 -6,1 -8,3 -2,1 -3,2 -6,2 -3,0 -5,-1 -7,-2 -1,-2 -3,-3 -7,-3 -4,0 -6,1 -8,3 -1,1 -3,2 -6,2 -1,0 -2,0 -3,0 1,1 1,1 1,2 1,0 1,0 2,0 4,0 6,-1 7,-3 2,-1 4,-2 7,-2 3,0 5,1 6,2 2,2 4,3 8,3 4,0 6,-1 7,-3 2,-1 4,-2 7,-2 3,0 4,1 6,2 2,2 4,3 8,3 4,0 6,-1 7,-3 2,-1 4,-2 7,-2 3,0 4,1 6,2 2,2 4,3 8,3 3,0 5,-1 7,-3 2,-1 3,-2 7,-2 3,0 4,1 6,2 2,2 4,3 8,3 3,0 5,-1 7,-3 2,-1 3,-2 6,-2 4,0 5,1 7,2 2,2 4,3 7,3 1,0 1,0 2,0 0,-1 1,-1 1,-2 -1,0 -2,0 -3,0 -3,0 -4,-1 -6,-2z"/>
 </g>
</svg>
