<?xml version="1.0" encoding="UTF-8"?>
<!DOCTYPE svg PUBLIC "-//W3C//DTD SVG 1.1//EN" "http://www.w3.org/Graphics/SVG/1.1/DTD/svg11.dtd">
<!-- Creator: CorelDRAW X8 -->
<svg xmlns="http://www.w3.org/2000/svg" xml:space="preserve" width="210mm" height="297mm" version="1.1" style="shape-rendering:geometricPrecision; text-rendering:geometricPrecision; image-rendering:optimizeQuality; fill-rule:evenodd; clip-rule:evenodd"
viewBox="0 0 210 297"
 xmlns:xlink="http://www.w3.org/1999/xlink">
 <defs>
  <style type="text/css">
   <![CDATA[
    .fil0 {fill:#0098DA}
    .fil1 {fill:white}
   ]]>
  </style>
 </defs>
 <g id="Capa_x0020_1">
  <metadata id="CorelCorpID_0Corel-Layer"/>
  <path class="fil0" d="M78 145c18,0 35,-8 47,-20 2,-2 4,-5 6,-7 0,0 0,0 -1,0 -3,0 -4,1 -6,2 -2,2 -3,3 -7,3 -3,0 -5,-1 -7,-3 -1,-1 -3,-2 -6,-2 -3,0 -4,1 -6,2 -2,2 -3,3 -7,3 -3,0 -5,-1 -6,-2 1,0 1,-1 2,-1 1,1 2,1 4,1 3,0 5,-1 6,-2 2,-1 4,-3 7,-3 4,0 5,2 7,3 2,1 3,2 6,2 3,0 5,-1 6,-2 2,-1 4,-3 7,-3 1,0 2,0 2,1 2,-2 3,-4 4,-6 -2,-1 -3,-2 -6,-2 -3,0 -4,1 -6,2 -2,2 -3,3 -7,3 -3,0 -5,-1 -7,-3 0,0 0,0 -1,0 1,-1 1,-1 2,-1 0,0 0,0 0,0 2,1 3,2 6,2 3,0 5,-1 6,-2 2,-1 4,-3 7,-3 3,0 5,1 7,3 0,-2 1,-3 1,-4 0,-1 -1,-1 -2,-2 -1,-1 -3,-2 -6,-2 -3,0 -4,1 -6,2 -2,2 -3,3 -7,3 -1,0 -2,0 -3,-1 0,0 0,0 1,-1 0,0 1,1 2,1 3,0 5,-2 6,-3 2,-1 4,-3 7,-3 4,0 5,2 7,3 1,1 1,1 2,1 3,-8 5,-16 5,-26 0,-36 -29,-66 -66,-66 -37,0 -66,30 -66,66 0,37 29,67 66,67zm-61 -41c1,0 1,0 2,-1 2,-1 3,-3 7,-3 3,0 5,2 7,3 1,1 3,3 6,3 1,0 2,-1 2,-1 1,1 1,1 1,1 -1,1 -2,1 -3,1 -4,0 -5,-1 -7,-3 -2,-1 -3,-2 -6,-2 -3,0 -5,1 -6,2 -1,1 -2,1 -2,2 0,-1 -1,-1 -1,-2zm89 7c-5,4 -11,6 -15,7 -7,0 -11,4 -13,6 -2,-2 -6,-6 -13,-6 -4,-1 -10,-3 -15,-7 -6,-4 -9,-8 -10,-12l0 -1 -3 1c0,-4 1,-8 2,-10 1,3 3,6 6,8l-4 0 0 1c0,0 2,4 5,7 3,2 9,6 19,6 2,0 4,-1 7,-2l0 0 2 -47 -14 0c-1,0 -2,-1 -2,-2 0,-1 1,-1 2,-1l15 0 0 -6 -1 0c-4,-1 -7,-5 -7,-10 0,-6 5,-10 11,-10 6,0 11,4 11,10 0,5 -3,9 -7,10l-1 0 0 6 15 0c1,0 2,0 2,1 0,1 -1,2 -2,2l-14 0 2 47 0 0c3,1 5,2 7,2 10,0 16,-4 19,-6 3,-3 4,-7 5,-7l0 -1 -4 0c3,-2 5,-5 6,-8 1,2 2,6 2,10l-3 -1 0 1c-1,4 -4,8 -10,12zm-47 -8c2,1 3,3 6,3 3,0 4,-1 6,-3l0 2c-2,1 -3,2 -6,2 -4,0 -5,-1 -7,-3 -2,-1 -3,-2 -6,-2 -2,0 -4,1 -5,1 0,0 -1,0 -1,-1 1,-1 3,-2 6,-2 3,0 5,2 7,3zm51 -1c0,1 -1,1 -1,1 -1,0 -3,-1 -5,-1 -3,0 -4,1 -6,2 -2,2 -3,3 -7,3 -3,0 -4,-1 -6,-2l0 -2c2,2 3,3 6,3 3,0 5,-2 6,-3 2,-1 4,-3 7,-3 3,0 5,1 6,2zm-90 8c1,-2 3,-3 6,-3 3,0 5,2 7,3 1,1 3,2 6,2 3,0 4,-1 6,-2 0,0 0,0 1,0 0,0 0,0 1,1 -1,0 -1,0 -1,0 -2,2 -4,3 -7,3 -4,0 -5,-1 -7,-3 -2,-1 -3,-2 -6,-2 -3,0 -4,1 -6,2 0,-1 0,-1 0,-1zm4 7c0,-1 1,-1 2,-1 3,0 5,2 7,3 1,1 3,2 6,2 3,0 4,-1 6,-2 2,-1 3,-3 7,-3 3,0 5,2 7,3 2,1 3,2 6,2 2,0 3,0 4,-1 1,0 2,1 2,1 -1,1 -3,2 -6,2 -3,0 -5,-1 -7,-3 -2,-1 -3,-2 -6,-2 -3,0 -4,1 -6,2 -2,2 -4,3 -7,3 -4,0 -5,-1 -7,-3 -2,-1 -3,-2 -6,-2 0,0 -1,0 -1,0 0,-1 -1,-1 -1,-1zm83 21c-1,0 -2,-1 -3,-1 -3,0 -4,2 -6,3 -2,1 -3,2 -7,2 -3,0 -5,-1 -7,-2 -1,-1 -3,-3 -6,-3 -3,0 -4,2 -6,3 -2,1 -3,2 -7,2 -4,0 -5,-1 -7,-2 -2,-1 -3,-3 -6,-3 -1,0 -2,1 -3,1 -1,0 -1,-1 -2,-1 1,-1 3,-1 5,-1 3,0 5,1 7,3 2,1 3,2 6,2 3,0 4,-1 6,-2 2,-2 4,-3 7,-3 4,0 5,1 7,3 2,1 3,2 6,2 3,0 5,-1 6,-2 2,-2 4,-3 7,-3 2,0 4,0 5,1 -1,0 -1,1 -2,1zm-16 -8c3,0 5,-1 6,-2 2,-1 4,-3 7,-3 4,0 5,2 7,3 2,1 3,2 6,2 1,0 2,0 2,0 0,1 -1,1 -2,2 -3,0 -5,-2 -7,-3 -1,-1 -3,-2 -6,-2 -3,0 -4,1 -6,2 -2,1 -3,3 -7,3 -3,0 -5,-2 -7,-3 -1,-1 -3,-2 -6,-2 -3,0 -4,1 -6,2 -2,1 -3,3 -7,3 -4,0 -5,-2 -7,-3 -2,-1 -3,-2 -6,-2 -3,0 -5,1 -6,2 -2,1 -4,3 -7,3 -1,-1 -1,-1 -2,-2 0,0 1,0 2,0 3,0 4,-1 6,-2 2,-1 3,-3 7,-3 3,0 5,2 7,3 1,1 3,2 6,2 3,0 4,-1 6,-2 2,-1 3,-3 6,-3l1 1 0 0 1 -1c3,0 4,2 6,3 2,1 3,2 6,2z"/>
  <path class="fil1" d="M97 103c-1,1 -3,3 -6,3 -3,0 -4,-1 -6,-3l0 2c2,1 3,2 6,2 4,0 5,-1 7,-3 2,-1 3,-2 6,-2 2,0 4,1 5,1 0,0 1,0 1,-1 -1,-1 -3,-2 -6,-2 -3,0 -5,2 -7,3z"/>
  <path class="fil1" d="M46 102c0,1 1,1 1,1 1,0 3,-1 5,-1 3,0 4,1 6,2 2,2 3,3 7,3 3,0 4,-1 6,-2l0 -2c-2,2 -3,3 -6,3 -3,0 -4,-2 -6,-3 -2,-1 -4,-3 -7,-3 -3,0 -4,1 -6,2z"/>
  <path class="fil1" d="M130 100c-3,0 -5,2 -7,3 -1,1 -3,3 -6,3 -1,0 -2,-1 -2,-1 -1,1 -1,1 -1,2 1,0 2,0 3,0 4,0 5,-1 7,-3 2,-1 3,-2 6,-2 3,0 5,1 6,2 1,1 2,1 2,2 1,-1 1,-1 1,-2l0 0c-1,0 -1,0 -2,-1 -2,-1 -3,-3 -7,-3z"/>
  <path class="fil1" d="M26 102c3,0 4,1 6,2 2,2 3,3 7,3 1,0 2,0 3,-1 0,0 0,0 -1,-1 0,0 -1,1 -2,1 -3,0 -5,-2 -6,-3 -2,-1 -4,-3 -7,-3 -4,0 -5,2 -7,3 -1,1 -1,1 -2,1 0,1 1,1 1,2 1,-1 1,-1 2,-2 1,-1 3,-2 6,-2z"/>
  <path class="fil1" d="M130 116c-3,0 -5,2 -7,3 -1,1 -3,2 -6,2 -3,0 -4,-1 -6,-2 -2,-1 -3,-3 -7,-3 -3,0 -5,2 -7,3 -1,1 -3,2 -6,2 -2,0 -3,0 -4,-1 -1,0 -2,1 -2,1 1,1 3,2 6,2 4,0 5,-1 7,-3 2,-1 3,-2 6,-2 3,0 5,1 6,2 2,2 4,3 7,3 4,0 5,-1 7,-3 2,-1 3,-2 6,-2 0,0 1,0 1,0 0,-1 1,-1 1,-1 0,-1 -1,-1 -2,-1z"/>
  <path class="fil1" d="M32 120c2,2 3,3 7,3 3,0 5,-1 7,-3 1,-1 3,-2 6,-2 3,0 4,1 6,2 2,2 3,3 7,3 3,0 5,-1 6,-2 0,0 -1,-1 -2,-1 -1,1 -2,1 -4,1 -3,0 -5,-1 -6,-2 -2,-1 -4,-3 -7,-3 -4,0 -5,2 -7,3 -2,1 -3,2 -6,2 -3,0 -5,-1 -6,-2 -2,-1 -4,-3 -7,-3 -1,0 -2,0 -2,1 0,0 1,0 1,1 0,0 1,0 1,0 3,0 4,1 6,2z"/>
  <path class="fil1" d="M78 126l0 0 0 -1c-4,0 -5,2 -7,3 -1,1 -3,2 -6,2 -3,0 -4,-1 -6,-2 -2,-1 -3,-3 -7,-3 -4,0 -5,2 -7,3 -2,1 -3,2 -6,2 -1,0 -2,0 -2,0 1,1 1,1 2,2 4,0 5,-2 7,-3 2,-1 3,-2 6,-2 3,0 5,1 6,2 2,1 4,3 7,3 4,0 5,-2 7,-3 2,-1 3,-2 6,-2 3,0 5,1 6,2 2,1 4,3 7,3 4,0 5,-2 7,-3 2,-1 3,-2 6,-2 3,0 5,1 6,2 2,1 4,3 7,3 1,-1 2,-1 2,-2 0,0 -1,0 -2,0 -3,0 -4,-1 -6,-2 -2,-1 -3,-3 -7,-3 -3,0 -5,2 -7,3 -1,1 -3,2 -6,2 -3,0 -4,-1 -6,-2 -2,-1 -3,-3 -6,-3l-1 1z"/>
  <path class="fil1" d="M97 139c-1,1 -3,2 -6,2 -3,0 -4,-1 -6,-2 -2,-2 -3,-3 -7,-3 -4,0 -5,1 -7,3 -2,1 -3,2 -6,2 -3,0 -5,-1 -6,-2 -2,-2 -4,-3 -7,-3 -2,0 -4,0 -5,1 1,0 1,1 2,1 1,0 2,-1 3,-1 3,0 4,2 6,3 2,1 3,3 7,3 3,0 5,-2 7,-3 2,-1 3,-3 6,-3 3,0 4,2 6,3 2,1 4,3 7,3 4,0 5,-2 7,-3 2,-1 3,-3 6,-3 1,0 2,1 3,1 1,0 1,-1 2,-1 -1,-1 -3,-1 -5,-1 -3,0 -5,1 -7,3z"/>
  <path class="fil1" d="M32 111c2,2 3,3 7,3 3,0 5,-1 7,-3 0,0 0,0 1,0 -1,-1 -1,-1 -2,-1 0,0 0,0 0,0 -2,1 -3,2 -6,2 -3,0 -5,-1 -6,-2 -2,-1 -4,-3 -7,-3 -3,0 -5,1 -6,3 0,0 0,0 0,1 2,-1 3,-2 6,-2 3,0 4,1 6,2z"/>
  <path class="fil1" d="M130 107c-3,0 -5,2 -7,3 -1,1 -3,2 -6,2 -3,0 -4,-1 -6,-2 0,0 0,0 0,0 -1,0 -1,0 -2,1 1,0 1,0 1,0 2,2 4,3 7,3 4,0 5,-1 7,-3 2,-1 3,-2 6,-2 3,0 4,1 6,2 0,-1 0,-1 0,-1 -1,-2 -3,-3 -6,-3z"/>
  <path class="fil1" d="M116 99l0 -1 3 1c0,-4 -1,-8 -2,-10 -1,3 -3,6 -6,8l4 0 0 1c0,0 -2,3 -5,7 -3,2 -9,6 -19,6 -2,0 -4,-1 -6,-2l-1 0 -2 -47 14 0c1,0 2,-1 2,-2 0,-1 -1,-1 -2,-1l-15 0 0 -6 1 0c4,-1 7,-5 7,-10 0,-6 -5,-10 -11,-10 -6,0 -11,4 -11,10 0,5 3,9 7,10l1 0 0 6 -15 0c-1,0 -2,0 -2,1 0,1 1,2 2,2l14 0 -2 47 0 0c-3,1 -5,2 -7,2 -10,0 -16,-4 -19,-6 -3,-3 -5,-7 -5,-7l0 -1 4 0c-3,-2 -5,-5 -6,-8 -1,2 -2,6 -2,10l3 -1 0 1c1,4 4,8 10,12 5,4 11,6 15,7 7,0 11,4 13,6 2,-2 6,-6 13,-6 4,-1 10,-3 15,-7 6,-4 9,-8 10,-12zm-47 -56c0,-5 4,-9 9,-9 5,0 9,4 9,9 0,5 -4,9 -9,9 -5,0 -9,-4 -9,-9z"/>
  <path class="fil0" d="M87 43c0,-5 -4,-9 -9,-9 -5,0 -9,4 -9,9 0,5 4,9 9,9 5,0 9,-4 9,-9z"/>
 </g>
</svg>
